<svg viewBox="0 0 28 28" xmlns="http://www.w3.org/2000/svg">
<path fill-rule="evenodd" clip-rule="evenodd" d="M14 25C20.0751 25 25 20.0751 25 14C25 7.92487 20.0751 3 14 3C7.92487 3 3 7.92487 3 14C3 20.0751 7.92487 25 14 25ZM14 27C21.1797 27 27 21.1797 27 14C27 6.8203 21.1797 1 14 1C6.8203 1 1 6.8203 1 14C1 21.1797 6.8203 27 14 27ZM14 6C14.5523 6 15 6.44772 15 7V13H21C21.5523 13 22 13.4477 22 14C22 14.5523 21.5523 15 21 15H15V21C15 21.5523 14.5523 22 14 22C13.4477 22 13 21.5523 13 21V15H7C6.44771 15 6 14.5523 6 14C6 13.4477 6.44771 13 7 13H13V7C13 6.44772 13.4477 6 14 6Z" fill="#201F21"/>
</svg>
