<svg viewBox="0 0 28 28" fill="none" xmlns="http://www.w3.org/2000/svg">
<path d="M23.8573 13.112H22.8573V14.112V25.3202C22.8573 25.4054 22.783 25.5 22.6596 25.5H14.2761H5.89249C5.76909 25.5 5.69483 25.4054 5.69483 25.3202V14.112V13.112H4.69483H1.70072C1.63423 13.112 1.59941 13.0939 1.57867 13.0788C1.55293 13.06 1.52833 13.0295 1.51343 12.9894C1.49853 12.9494 1.4984 12.9136 1.50439 12.8885C1.50883 12.87 1.52009 12.8391 1.56738 12.7997L13.8673 2.5473C13.943 2.48423 14.0583 2.48423 14.134 2.5473L26.434 12.7997C26.4812 12.8391 26.4925 12.87 26.497 12.8885C26.5029 12.9136 26.5028 12.9494 26.4879 12.9894C26.473 13.0295 26.4484 13.06 26.4227 13.0788C26.4019 13.0939 26.3671 13.112 26.3006 13.112H23.8573Z" stroke="#201F21" stroke-width="2"/>
</svg>
