<svg viewBox="0 0 28 28" xmlns="http://www.w3.org/2000/svg">
<path fill-rule="evenodd" clip-rule="evenodd" d="M2.50067 1.49759C1.3961 1.49759 0.500671 2.39302 0.500671 3.49759V24.4984C0.500671 26.268 2.62971 27.1658 3.89679 25.9305L9.56052 20.409H25.5007C26.6052 20.409 27.5007 19.5135 27.5007 18.409V3.49759C27.5007 2.39302 26.6052 1.49759 25.5007 1.49759H2.50067ZM2.50067 3.49759L25.5007 3.49759V18.409L9.56052 18.409C9.03889 18.409 8.5379 18.6128 8.1644 18.9769L2.50067 24.4984V3.49759ZM8.00067 12.2465C8.8291 12.2465 9.50067 11.5918 9.50067 10.7842C9.50067 9.97653 8.8291 9.32182 8.00067 9.32182C7.17224 9.32182 6.50067 9.97653 6.50067 10.7842C6.50067 11.5918 7.17224 12.2465 8.00067 12.2465ZM15.5007 10.7842C15.5007 11.5918 14.8291 12.2465 14.0007 12.2465C13.1722 12.2465 12.5007 11.5918 12.5007 10.7842C12.5007 9.97653 13.1722 9.32182 14.0007 9.32182C14.8291 9.32182 15.5007 9.97653 15.5007 10.7842ZM20.0007 12.2465C20.8291 12.2465 21.5007 11.5918 21.5007 10.7842C21.5007 9.97653 20.8291 9.32182 20.0007 9.32182C19.1722 9.32182 18.5007 9.97653 18.5007 10.7842C18.5007 11.5918 19.1722 12.2465 20.0007 12.2465Z" fill="#201F21"/>
</svg>
