<svg viewBox="0 0 28 28" xmlns="http://www.w3.org/2000/svg">
<path d="M16.6412 1C16.8429 1.00001 17.0394 1.06241 17.2025 1.17822C17.3655 1.29403 17.4866 1.45727 17.5483 1.64443L18.5964 4.81829C19.0366 5.02814 19.4577 5.264 19.8598 5.52957L23.2061 4.82757C23.4034 4.78652 23.609 4.80756 23.7932 4.88766C23.9775 4.96776 24.1309 5.10278 24.2313 5.27329L26.8725 9.72857C26.9734 9.89898 27.0161 10.0962 26.9945 10.2918C26.973 10.4874 26.8882 10.6712 26.7525 10.8169L24.4562 13.2869C24.4896 13.7605 24.4896 14.2358 24.4562 14.7094L26.7525 17.1831C26.8882 17.3288 26.973 17.5126 26.9945 17.7082C27.0161 17.9038 26.9734 18.101 26.8725 18.2714L24.2313 22.7286C24.1306 22.8987 23.9771 23.0334 23.7929 23.1131C23.6086 23.1929 23.4032 23.2136 23.2061 23.1724L19.8598 22.4704C19.4596 22.7341 19.0366 22.9719 18.5983 23.1817L17.5483 26.3556C17.4866 26.5427 17.3655 26.706 17.2025 26.8218C17.0394 26.9376 16.8429 27 16.6412 27H11.3588C11.1571 27 10.9605 26.9376 10.7975 26.8218C10.6345 26.706 10.5134 26.5427 10.4517 26.3556L9.40552 23.1836C8.9665 22.9744 8.54305 22.7354 8.13828 22.4686L4.79389 23.1724C4.59659 23.2135 4.39102 23.1924 4.20677 23.1123C4.02253 23.0322 3.86913 22.8972 3.76866 22.7267L1.12746 18.2714C1.0266 18.101 0.983883 17.9038 1.00546 17.7082C1.02704 17.5126 1.1118 17.3288 1.24751 17.1831L3.5438 14.7094C3.51054 14.237 3.51054 13.763 3.5438 13.2906L1.24751 10.8169C1.1118 10.6712 1.02704 10.4874 1.00546 10.2918C0.983883 10.0962 1.0266 9.89898 1.12746 9.72857L3.76866 5.27143C3.8694 5.10127 4.02292 4.96662 4.20715 4.88687C4.39137 4.80711 4.5968 4.78635 4.79389 4.82757L8.13828 5.53143C8.54227 5.26586 8.96532 5.02629 9.40552 4.81643L10.4536 1.64443C10.5151 1.45787 10.6357 1.29506 10.7979 1.17931C10.9602 1.06355 11.1558 1.00079 11.3569 1H16.6393H16.6412ZM15.9437 2.85714H12.0563L10.9739 6.13871L10.244 6.486C9.8852 6.65711 9.53884 6.85195 9.20734 7.06914L8.53274 7.51486L5.07212 6.78686L3.12837 10.0703L5.50088 12.6294L5.44371 13.4169C5.41633 13.8052 5.41633 14.1948 5.44371 14.5831L5.50088 15.3706L3.12456 17.9297L5.07021 21.2131L8.53084 20.487L9.20543 20.9309C9.53693 21.1481 9.8833 21.3429 10.2421 21.514L10.9719 21.8613L12.0563 25.1429H15.9476L17.0338 21.8594L17.7617 21.514C18.1201 21.3433 18.4659 21.1484 18.7965 20.9309L19.4692 20.487L22.9317 21.2131L24.8754 17.9297L22.501 15.3706L22.5582 14.5831C22.5857 14.1942 22.5857 13.8039 22.5582 13.415L22.501 12.6276L24.8773 10.0703L22.9317 6.78686L19.4692 7.51114L18.7965 7.06914C18.4659 6.85151 18.1201 6.65666 17.7617 6.486L17.0338 6.14057L15.9456 2.85714H15.9437ZM14 8.42857C15.5162 8.42857 16.9703 9.01556 18.0425 10.0604C19.1146 11.1053 19.7169 12.5224 19.7169 14C19.7169 15.4776 19.1146 16.8948 18.0425 17.9396C16.9703 18.9844 15.5162 19.5714 14 19.5714C12.4838 19.5714 11.0297 18.9844 9.95754 17.9396C8.88542 16.8948 8.2831 15.4776 8.2831 14C8.2831 12.5224 8.88542 11.1053 9.95754 10.0604C11.0297 9.01556 12.4838 8.42857 14 8.42857ZM14 10.2857C12.9892 10.2857 12.0198 10.677 11.305 11.3736C10.5903 12.0702 10.1887 13.0149 10.1887 14C10.1887 14.9851 10.5903 15.9298 11.305 16.6264C12.0198 17.323 12.9892 17.7143 14 17.7143C15.0108 17.7143 15.9802 17.323 16.695 16.6264C17.4097 15.9298 17.8113 14.9851 17.8113 14C17.8113 13.0149 17.4097 12.0702 16.695 11.3736C15.9802 10.677 15.0108 10.2857 14 10.2857Z" fill="#201F21"/>
</svg>
