<svg viewBox="0 0 28 28" fill="none" xmlns="http://www.w3.org/2000/svg">
<path fill-rule="evenodd" clip-rule="evenodd" d="M15 2.5C15 1.94772 14.5523 1.5 14 1.5C13.4477 1.5 13 1.94772 13 2.5V4.5C13 5.05228 13.4477 5.5 14 5.5C14.5523 5.5 15 5.05228 15 4.5V2.5ZM6.20711 5.29289C5.81658 4.90237 5.18342 4.90237 4.79289 5.29289C4.40237 5.68342 4.40237 6.31658 4.79289 6.70711L6.29289 8.20711C6.68342 8.59763 7.31658 8.59763 7.70711 8.20711C8.09763 7.81658 8.09763 7.18342 7.70711 6.79289L6.20711 5.29289ZM23.2071 6.70711C23.5976 6.31658 23.5976 5.68342 23.2071 5.29289C22.8166 4.90237 22.1834 4.90237 21.7929 5.29289L20.2929 6.79289C19.9024 7.18342 19.9024 7.81658 20.2929 8.20711C20.6834 8.59763 21.3166 8.59763 21.7071 8.20711L23.2071 6.70711ZM3 12.5C2.44772 12.5 2 12.9477 2 13.5C2 14.0523 2.44772 14.5 3 14.5H5C5.55228 14.5 6 14.0523 6 13.5C6 12.9477 5.55228 12.5 5 12.5H3ZM23 12.5C22.4477 12.5 22 12.9477 22 13.5C22 14.0523 22.4477 14.5 23 14.5H25C25.5523 14.5 26 14.0523 26 13.5C26 12.9477 25.5523 12.5 25 12.5H23ZM9 13.4744C9 10.734 11.2317 8.5 14 8.5C16.7683 8.5 19 10.734 19 13.4744C19 14.6436 18.3882 15.6852 17.4119 17.1709C16.4887 18.5758 15.9563 20.1319 15.6982 21.5H12.3018C12.0437 20.1319 11.5113 18.5758 10.5881 17.1709C9.47635 15.4791 9 14.6526 9 13.4744ZM17.5647 22.5028C17.5573 22.5636 17.5451 22.6231 17.5287 22.681C17.3972 23.145 16.991 23.5 16.5 23.5H11.5C11.009 23.5 10.6028 23.145 10.4713 22.681C10.4549 22.6231 10.4427 22.5636 10.4353 22.5028C10.2765 21.2124 9.81355 19.634 8.91669 18.2692C7.84096 16.6323 7 15.3316 7 13.4744C7 9.62253 10.134 6.5 14 6.5C17.866 6.5 21 9.62253 21 13.4744C21 15.3316 20.0102 16.8588 19.0833 18.2692C18.1865 19.634 17.7235 21.2124 17.5647 22.5028ZM16.5 24.5C16.997 24.5 17.4093 24.8625 17.4869 25.3376C17.4955 25.3904 17.5 25.4447 17.5 25.5C17.5 26.0523 17.0523 26.5 16.5 26.5H11.5C10.9477 26.5 10.5 26.0523 10.5 25.5C10.5 25.4447 10.5045 25.3904 10.5131 25.3376C10.5907 24.8625 11.003 24.5 11.5 24.5H16.5Z" fill="black"/>
</svg>
